<svg xmlns="http://www.w3.org/2000/svg" width="200" height="200" class="icon" p-id="8583" t="1683971747666" version="1.1" viewBox="0 0 1024 1024"><path fill="#5C5C66" d="M448 938.666667a21.333333 21.333333 0 0 1-20.38-15.06L272.6 419.833333l-61.52 123.04A21.333333 21.333333 0 0 1 192 554.666667H21.333333a21.333333 21.333333 0 0 1 0-42.666667h157.48l79.44-158.873333a21.333333 21.333333 0 0 1 39.466667 3.266666L444.666667 834 597.84 144.706667a21.333333 21.333333 0 0 1 41.213333-1.646667l155.013334 503.773333 61.52-123.04A21.333333 21.333333 0 0 1 874.666667 512h128a21.333333 21.333333 0 0 1 0 42.666667h-114.813334l-79.44 158.873333a21.333333 21.333333 0 0 1-39.466666-3.266667L622 232.666667 468.826667 921.96a21.333333 21.333333 0 0 1-20 16.666667z" p-id="8584"/></svg>